<?xml version="1.0" encoding="UTF-8" standalone="no"?>
<!-- Created with Inkscape (http://www.inkscape.org/) -->

<svg
   width="2234.9336"
   height="2343.4951"
   viewBox="0 0 591.32617 620.04976"
   version="1.1"
   id="svg1"
   xmlns:inkscape="http://www.inkscape.org/namespaces/inkscape"
   xmlns:sodipodi="http://sodipodi.sourceforge.net/DTD/sodipodi-0.dtd"
   xmlns="http://www.w3.org/2000/svg"
   xmlns:svg="http://www.w3.org/2000/svg">
  <sodipodi:namedview
     id="namedview1"
     pagecolor="#505050"
     bordercolor="#eeeeee"
     borderopacity="1"
     inkscape:showpageshadow="0"
     inkscape:pageopacity="0"
     inkscape:pagecheckerboard="0"
     inkscape:deskcolor="#505050"
     inkscape:document-units="mm" />
  <defs
     id="defs1" />
  <g
     inkscape:label="Calque 1"
     inkscape:groupmode="layer"
     id="layer1"
     transform="translate(37.956754,19.977239)">
    <path
       style="fill:#4a4947;fill-opacity:1;stroke-width:2"
       d="m 405.53793,-11.986343 -58.93287,54.937404 17.97952,48.944233 c 0,0 3.99545,24.971546 4.99431,30.964716 0.99888,5.99317 -3.99545,22.97383 -4.99431,31.96358 -0.99885,8.98976 -4.9943,21.97496 -1.99771,36.95789 2.99657,14.98293 12.9852,28.967 12.9852,38.95561 0,9.98862 -16.98064,47.94538 -16.98064,66.92376 0,18.97838 -0.99888,12.98519 1.99771,41.9522 2.99659,28.96698 2.99659,36.95787 6.99204,54.9374 3.99544,17.97952 7.99089,29.96586 14.98293,37.95675 6.99203,7.99089 23.97267,30.96472 22.97382,49.94309 -0.99886,18.97838 -1.99774,24.97154 -0.99886,37.95676 0.99886,12.98519 0,8.98974 1.99771,20.97608 1.99774,11.98634 2.9966,25.97042 7.9909,34.96017 4.9943,8.98977 -2.99659,10.98748 39.95449,19.97725 42.95105,8.98975 98.8873,-0.99888 98.8873,-0.99888 l -5.99315,-614.300046 z"
       id="path2" />
    <path
       style="fill:#4a4947;fill-opacity:1;stroke-width:2"
       d="m -25.970409,-15.98179 188.784899,-3.995448 16.98065,42.951061 c 0,0 -6.99203,18.978375 -9.98862,24.971547 -2.99659,5.993172 -19.97724,27.968133 -20.9761,32.962442 -0.99886,4.99431 -10.98748,20.976098 -11.98634,29.965858 -0.99886,8.98976 -7.9909,39.95448 -7.9909,45.94765 0,5.99317 -1.99772,31.96358 0,39.95447 1.99773,7.9909 9.98862,30.96472 13.98407,38.95561 3.99545,7.9909 6.99203,31.96359 5.99317,41.95219 -0.99886,9.98863 -10.98748,35.95905 -13.98407,43.94994 -2.99658,7.99089 -8.98975,26.96927 -11.98634,41.9522 -2.99658,14.98293 0,34.96016 -10.98748,58.93284 -10.98748,23.9727 -22.973822,44.94879 -31.963578,63.92717 -8.989758,18.97838 -20.9761,44.94879 -24.971549,55.93628 -3.995447,10.98745 -17.979514,39.95446 -17.979514,39.95446 l -74.91464,8.98975 z"
       id="path3" />
  </g>
</svg>
